/* XPM */
static char *_fcf432cd0304b7ce92624c13f35b09ePYawBlP0DU7zXLkY[] = {
/* columns rows colors chars-per-pixel */
"16 16 143 2 ",
"   c #5B3416",
".  c #AF6F3E",
"X  c #AF703F",
"o  c #92582B",
"O  c #623817",
"+  c #A86530",
"@  c #AD6D3B",
"#  c #93592C",
"$  c #3E220D",
"%  c #5C3416",
"&  c #4E2C12",
"*  c #5C3619",
"=  c #B77C4E",
"-  c #B07445",
";  c #AE7040",
":  c #5D371A",
">  c #B4784A",
",  c #B17445",
"<  c #955E32",
"1  c #643A1A",
"2  c #B47849",
"3  c #B07241",
"4  c #643A19",
"5  c #AF6E3B",
"6  c #AE6D3B",
"7  c #955C2F",
"8  c #B37748",
"9  c #AE7141",
"0  c #AB6B3A",
"q  c #AE6F3D",
"w  c #AF7140",
"e  c #955E33",
"r  c #B77D4F",
"t  c #B27647",
"y  c #966035",
"u  c #B4794A",
"i  c #955D31",
"p  c #643B1A",
"a  c #B5794A",
"s  c #B07242",
"d  c #AC6C39",
"f  c #B57B4D",
"g  c #935B2E",
"h  c #633A19",
"j  c #B77C4F",
"k  c #976035",
"l  c #583214",
"z  c #986237",
"x  c #905628",
"c  c #B67C4F",
"v  c #B07140",
"b  c #AF7241",
"n  c #B37747",
"m  c #B4794B",
"M  c #996339",
"N  c #42240D",
"B  c #623715",
"V  c #613513",
"C  c #623716",
"Z  c #B67B4E",
"A  c #986339",
"S  c #B27545",
"D  c #976237",
"F  c #B98054",
"G  c #B17545",
"H  c #955D32",
"J  c #AE6C38",
"K  c #A96632",
"L  c #AB6A37",
"P  c #5B3516",
"I  c #B87E51",
"U  c #AD6E3C",
"Y  c #945D31",
"T  c #AF703E",
"R  c #AD6E3E",
"E  c #AB6B39",
"W  c #5A3314",
"Q  c #B07141",
"!  c #B67C4E",
"~  c #B07343",
"^  c #AD6F3E",
"/  c #5B3415",
"(  c #633918",
")  c #B37646",
"_  c #B98156",
"`  c #B5794B",
"'  c #B07344",
"]  c #B17444",
"[  c #986238",
"{  c #633817",
"}  c #B0703E",
"|  c #965F33",
" . c #B98055",
".. c #AC6E3D",
"X. c #AF713F",
"o. c #AE703E",
"O. c #965E33",
"+. c #93582B",
"@. c #7F4D26",
"#. c #613919",
"$. c #AF6F3D",
"%. c #AA6A38",
"&. c #5E381A",
"*. c #B0703F",
"=. c #975F33",
"-. c #633816",
";. c #542F12",
":. c #5C3516",
">. c #AC6D3C",
",. c #502E14",
"<. c #93592B",
"1. c #92582A",
"2. c #7D4B23",
"3. c #623919",
"4. c #B37544",
"5. c #B17241",
"6. c #965D30",
"7. c #371F0C",
"8. c #543013",
"9. c #5D3719",
"0. c #B57A4B",
"q. c #B37647",
"w. c #AA6B39",
"e. c #5D3718",
"r. c #AC6935",
"t. c #B27444",
"y. c #986135",
"u. c #B87F52",
"i. c #965F34",
"p. c #B88054",
"a. c #AF7343",
"s. c #AB6C3A",
"d. c #593212",
"f. c #AA6733",
"g. c #623816",
"h. c #AA6835",
"j. c #AD6D3A",
"k. c #AF7141",
"l. c #92592C",
"z. c #AA6834",
"x. c #AC6D3B",
"c. c #A76531",
"v. c white",
/* pixels */
"  . X o O + @ # $   % & * = - ; ",
": > , < 1 2 3 < 4 5 6 7 1 8 9 0 ",
": q w e 4 r t y 4 u 3 i p a s d ",
"* q f g 4 2 f y h j t k l z g x ",
"  8 c e 1 v b < 1 n m M N B V C ",
": Z 8 A 4 S t D h F G H 4 J K L ",
"P S 8 A h I U < h F s Y 1 T R E ",
"W Q ! A h F ~ Y 4 j t y 1 w ^ 0 ",
"/ 3 G A ( ) d i 1 v _ A h ` ' 9 ",
": ` ] [ { } S | 1 q  .A h ! ' ..",
": X.o.O.l +.| @.#.$.> y 1 v ^ %.",
"&.*.T =.N -.-.;.:.n ~ Y 1 ) 9 >.",
",.<.1.2.3.4.5.6.p Q o.i 1 2 9 0 ",
"7.{ 4 8.9.0.m y 4 q.@ < 1 q ..w.",
"e.r.t.y.4 u.G i.4 0.p.[ h q.a.s.",
"d.f.3 e g.. h.x O j.k.l.O z.x.c."
};
