/* XPM */
static char *c8209b61dd8c4720f19dc68ffc53b474Nk3m8ypTET56yQoC[] = {
/* columns rows colors chars-per-pixel */
"16 16 197 2 ",
"   c #E14E19",
".  c #E23D0B",
"X  c #DA350A",
"o  c #C93E0F",
"O  c #C5300B",
"+  c #E64312",
"@  c #D9611F",
"#  c #C92D0A",
"$  c #DC330C",
"%  c #D93A11",
"&  c #D0360F",
"*  c #E5340B",
"=  c #EF6117",
"-  c #D93C0E",
";  c #CA1A05",
":  c #E01D04",
">  c #E3581B",
",  c #EC6F21",
"<  c #DC5114",
"1  c #D33409",
"2  c #E35D1A",
"3  c #D52308",
"4  c #BA2308",
"5  c #D02206",
"6  c #E22D0A",
"7  c #DE290B",
"8  c #CE1F06",
"9  c #D44911",
"0  c #EF7420",
"q  c #DD5114",
"w  c #DC1904",
"e  c #EC2204",
"r  c #DA510F",
"t  c #DC5215",
"y  c #CE330D",
"u  c #CC2506",
"i  c #D72D0A",
"p  c #DD4210",
"a  c #DC4910",
"s  c #DD410D",
"d  c #E45B16",
"f  c #DA5118",
"g  c #DD4914",
"h  c #D13B0E",
"j  c #D34111",
"k  c #D94014",
"l  c #CE1D06",
"z  c #DC2204",
"x  c #D63D0E",
"c  c #CD2207",
"v  c #EE651C",
"b  c #CD4611",
"n  c #E22C07",
"m  c #DB5719",
"M  c #EB5113",
"N  c #E76E1A",
"B  c #E45D0F",
"V  c #DC4D0C",
"C  c #D9440F",
"Z  c #DD3E0F",
"A  c #D82F0B",
"S  c #CA2808",
"D  c #D44A15",
"F  c #E76819",
"G  c #E66B20",
"H  c #CB2D09",
"J  c #D35116",
"K  c #CE290A",
"L  c #C01E05",
"P  c #CA1E05",
"I  c #E04F15",
"U  c #E88A2D",
"Y  c #E1621D",
"T  c #E63C0C",
"R  c #D6330C",
"E  c #D32407",
"W  c #D5350C",
"Q  c #C92F08",
"!  c #E27022",
"~  c #EC8529",
"^  c #E86C1B",
"/  c #DE2608",
"(  c #E32A08",
")  c #D11A05",
"_  c #DD4617",
"`  c #E85E1C",
"'  c #D92809",
"]  c #D0300D",
"[  c #DD2A0A",
"{  c #E3591E",
"}  c #CA4417",
"|  c #BF2106",
" . c #E76119",
".. c #E35517",
"X. c #F37227",
"o. c #E37D25",
"O. c #D44714",
"+. c #E14715",
"@. c #CF4513",
"#. c #D63D10",
"$. c #E07325",
"%. c #CD5719",
"&. c #BD370F",
"*. c #D7591C",
"=. c #BC1D05",
"-. c #B62108",
";. c #DF2B08",
":. c #DD2F06",
">. c #DC3E0D",
",. c #CE3F11",
"<. c #D23D12",
"1. c #CF4812",
"2. c #C41D07",
"3. c #D6340E",
"4. c #C21F08",
"5. c #C7260A",
"6. c #D14510",
"7. c #CB2005",
"8. c #E75C1A",
"9. c #D16822",
"0. c #C12207",
"q. c #D91703",
"w. c #E74C10",
"e. c #F07416",
"r. c #DE4A0E",
"t. c #D72206",
"y. c #E2350D",
"u. c #DF1F06",
"i. c #DB330D",
"p. c #DB370F",
"a. c #D4350F",
"s. c #DF2F0A",
"d. c #EB5714",
"f. c #D9370C",
"g. c #CD2307",
"h. c #DF2809",
"j. c #E54515",
"k. c #E1390A",
"l. c #DB370A",
"z. c #CE4611",
"x. c #CA350D",
"c. c #E94010",
"v. c #DD5F1D",
"b. c #CA2F0A",
"n. c #E22D0B",
"m. c #EF7520",
"M. c #DD5214",
"N. c #DC1803",
"B. c #ED2706",
"V. c #E55518",
"C. c #EC7022",
"Z. c #DB5115",
"A. c #D33309",
"S. c #BA2207",
"D. c #CD2106",
"F. c #E35D17",
"G. c #D82605",
"H. c #D64E0F",
"J. c #DC5315",
"K. c #DD4910",
"L. c #DD400E",
"P. c #E55C0E",
"I. c #E46418",
"U. c #D6400E",
"Y. c #E8711C",
"T. c #E15E1B",
"R. c #E63C0D",
"E. c #ED8329",
"W. c #E56C20",
"Q. c #E05016",
"!. c #E57C24",
"~. c #E76C1B",
"^. c #DE2508",
"/. c #D0330D",
"(. c #BB1703",
"). c #DD3007",
"_. c #D04812",
"`. c #D64814",
"'. c #D63C10",
"]. c #E07225",
"[. c #D6611F",
"{. c #BC1904",
"}. c #D71603",
"|. c #E74E10",
" X c #EF7214",
".X c #DE4C0E",
"XX c #D31D05",
"oX c #E12A08",
"OX c #D81804",
"+X c #C71A06",
"@X c #D4330E",
"#X c #C31A06",
"$X c #C6290C",
"%X c #CB2106",
"&X c #EF621C",
"*X c #D77B29",
"=X c white",
/* pixels */
"  . X o O + @ # $ % & * = - ; : ",
"> , < 1 2 3 4 5 6 7 8 9 0 q w e ",
"r t y u i p a s d f g h j k l z ",
"x c v b n m M N B V C Z A S D F ",
"G H J K L P I U Y T R E W Q ! ~ ",
"^ / ( ) _ ` ' ] [ { } |  ...X.o.",
"O.+.@.#.$.%.&.*.=.-.;.:.>.,.<.1.",
"2.3.4.5.6.7.8.9.0.q.w.e.r.t.y.u.",
"i.p.a.s.d.f.g.h.j.k.l.z.x.c.v.b.",
"n.7 8 9 m.M.N.B.V.C.Z.A.2 3 S.D.",
"F.f g h j k l G.H.J.y u i p K.L.",
"P.V C Z A S D I.U.c v b n m M Y.",
"T.R.R E W Q ! E.W.H J K L P Q.U ",
"h.{ } |  ...X.!.~.^.( ) _ ` ' /.",
"(.-.;.).>.,.<._.`.+.@.'.].%.&.[.",
"{.}.|. X.XXXoXOX+X@X#X$Xb %X&X*X"
};
