/* XPM */
static char *d2b9382afc874373f7d9aa50e1172bc4RRBILBoZXHcBBIbm[] = {
/* columns rows colors chars-per-pixel */
"16 16 21 1 ",
"  c #5A5A5A",
". c gray37",
"X c #606060",
"o c #595858",
"O c gray35",
"+ c #5B5B5B",
"@ c #585858",
"# c #555454",
"$ c gray34",
"% c #575656",
"& c #545353",
"* c #525151",
"= c #585757",
"- c #565656",
"; c #5B5A5A",
": c gray36",
"> c #5A5959",
", c #555555",
"< c #565555",
"1 c #535252",
"2 c white",
/* pixels */
"  ..XX... oO    ",
"    ++          ",
"    @#          ",
"@@$%&*$===OOOO@@",
"-%----O;+ +:::@$",
"        +>O     ",
"         #O     ",
"@@@OOOO=$&@OO@@@",
"$$@+::  ;;:: ,##",
"  OOO +         ",
"   OO %O        ",
"@@@@$<1@OOOOOOOO",
"#####&%::::+::::",
"       >>>+OO   ",
"        O=O,O   ",
"           &O   "
};
